Coordinates
version=1
nRows=17
nColumns=38
inDegrees=no

Units are S.I. units (second, meters, Newtons, ...)
If the header above contains a line with 'inDegrees', this indicates whether rotational values are in degrees (yes) or radians (no).

endheader
time	pelvis_tilt	pelvis_list	pelvis_rotation	pelvis_tx	pelvis_ty	pelvis_tz	hip_flexion_r	hip_adduction_r	hip_rotation_r	knee_angle_r	ankle_angle_r	subtalar_angle_r	mtp_angle_r	hip_flexion_l	hip_adduction_l	hip_rotation_l	knee_angle_l	ankle_angle_l	subtalar_angle_l	mtp_angle_l	lumbar_extension	lumbar_bending	lumbar_rotation	arm_flex_r	arm_add_r	arm_rot_r	elbow_flex_r	pro_sup_r	wrist_flex_r	wrist_dev_r	arm_flex_l	arm_add_l	arm_rot_l	elbow_flex_l	pro_sup_l	wrist_flex_l	wrist_dev_l
0	0.25084	1.27237	-1.86855	0.75767	1.50178	0.955367	-0.350236	-0.0296703	-0.243387	0.123148	0.0982277	0	0	0.313034	-0.0852761	-0.311047	0.745445	0.0728588	0	0	-0.391619	-0.0685817	0.0839481	0.226228	-0.58263	-0.0128098	1.50409	0.894773	0	0	0.322675	-0.44824	0.0859889	1.68122	1.06753	0	0
0.01	0.249972	1.28049	-1.86697	0.757799	1.49149	0.9536	-0.358156	-0.0263732	-0.243364	0.117533	0.110336	0	0	0.3121	-0.0795769	-0.33183	0.667044	0.0743349	0	0	-0.384285	-0.0656312	0.083473	0.228447	-0.58567	-0.0116298	1.50695	0.894651	0	0	0.322512	-0.446114	0.0827042	1.68136	1.06931	0	0
0.02	0.25531	1.28962	-1.87031	0.75786	1.48017	0.951313	-0.367457	-0.0232357	-0.242588	0.108431	0.120433	0	0	0.309559	-0.0707779	-0.353274	0.585425	0.0760736	0	0	-0.383754	-0.0625679	0.0729563	0.234357	-0.587014	-0.0073094	1.52446	0.896346	0	0	0.30566	-0.449493	0.0594793	1.70535	1.07264	0	0
0.03	0.256244	1.29778	-1.86896	0.758341	1.4693	0.949019	-0.376033	-0.0199824	-0.241801	0.102028	0.129143	0	0	0.304514	-0.0593583	-0.369226	0.500692	0.0755088	0	0	-0.374681	-0.0594485	0.0701044	0.23699	-0.589283	-0.00504717	1.52612	0.897846	0	0	0.303336	-0.446516	0.0546967	1.70594	1.07506	0	0
0.04	0.256909	1.30604	-1.86597	0.759108	1.45833	0.946509	-0.384333	-0.0166658	-0.242316	0.0967857	0.139132	0	0	0.297763	-0.0446802	-0.377007	0.413777	0.0757315	0	0	-0.365201	-0.055644	0.0659474	0.239961	-0.59176	-0.0023492	1.52633	0.900508	0	0	0.301372	-0.443051	0.0503186	1.7057	1.07758	0	0
0.05	0.259329	1.31426	-1.8639	0.76001	1.44722	0.94385	-0.391983	-0.0139638	-0.244099	0.0934738	0.150677	0	0	0.287738	-0.0260997	-0.371675	0.322894	0.0749592	0	0	-0.355196	-0.0522485	0.0608622	0.243006	-0.593243	0.000271302	1.5254	0.906636	0	0	0.299517	-0.439457	0.0458155	1.70491	1.08544	0	0
0.06	0.261655	1.32288	-1.8616	0.760913	1.43593	0.940983	-0.397944	-0.011373	-0.247633	0.093474	0.163659	0	0	0.275585	-0.0067166	-0.35422	0.232575	0.0748284	0	0	-0.344023	-0.049123	0.0565732	0.244411	-0.593922	0.00108686	1.52471	0.909575	0	0	0.298601	-0.436039	0.0427643	1.7027	1.09292	0	0
0.07	0.255993	1.32912	-1.8525	0.761985	1.42504	0.938397	-0.404741	-0.0087533	-0.250322	0.0966352	0.176353	0	0	0.257186	0.011778	-0.321719	0.141795	0.068685	0	0	-0.324892	-0.0472491	0.0645758	0.237921	-0.595631	-0.0052774	1.50756	0.909036	0	0	0.317426	-0.426445	0.0655022	1.67188	1.09841	0	0
0.08	0.263389	1.33667	-1.85467	0.762518	1.41261	0.935105	-0.412088	-0.00729448	-0.259143	0.0986768	0.191481	0	0	0.237968	0.0301379	-0.280274	0.0561846	0.0592244	0	0	-0.323502	-0.0443505	0.0488605	0.245854	-0.594198	0.00167669	1.52102	0.914029	0	0	0.298222	-0.431519	0.0403573	1.69786	1.104	0	0
0.09	0.259668	1.34173	-1.84873	0.762829	1.40057	0.93209	-0.418068	-0.00613312	-0.268946	0.108613	0.208175	0	0	0.220399	0.0413707	-0.24712	0	0.0482096	0	0	-0.314492	-0.0427659	0.0468588	0.246519	-0.593931	0.00295245	1.51797	0.916085	0	0	0.298238	-0.431115	0.040089	1.69662	1.10326	0	0
0.1	0.25733	1.34111	-1.84442	0.762866	1.38911	0.929336	-0.425018	-0.00660312	-0.280236	0.127115	0.225614	0	0	0.226747	0.0471957	-0.236398	0	0.0473427	0	0	-0.312381	-0.0441854	0.0453439	0.248337	-0.59345	0.00494745	1.51474	0.917485	0	0	0.300885	-0.43189	0.0422172	1.69533	1.10153	0	0
0.11	0.258763	1.3415	-1.8466	0.762656	1.37702	0.926588	-0.42844	-0.0112796	-0.296477	0.151867	0.247363	0	0	0.225431	0.0524662	-0.232509	0	0.0495909	0	0	-0.307931	-0.0470074	0.0461766	0.249204	-0.593109	0.0068612	1.51174	0.919027	0	0	0.30301	-0.433624	0.0448859	1.69453	1.09948	0	0
0.12	0.260564	1.34164	-1.85244	0.762152	1.36446	0.923931	-0.433964	-0.0168394	-0.306475	0.172301	0.265143	0	0	0.219323	0.0574455	-0.22617	0	0.0503397	0	0	-0.302923	-0.0506713	0.0498997	0.249678	-0.593042	0.00898652	1.50915	0.919927	0	0	0.304596	-0.436131	0.0475087	1.69429	1.09808	0	0
0.13	0.26092	1.34188	-1.86009	0.761419	1.35144	0.921314	-0.44047	-0.0230462	-0.311015	0.190052	0.279715	0	0	0.208964	0.0616155	-0.216962	0	0.0487773	0	0	-0.297164	-0.0543532	0.0566339	0.24957	-0.593201	0.0107649	1.50694	0.919752	0	0	0.305408	-0.439085	0.0500109	1.69426	1.09843	0	0
0.14	0.258387	1.34233	-1.86647	0.760592	1.33808	0.918877	-0.44895	-0.0319548	-0.316503	0.205399	0.294639	0	0	0.200487	0.0610412	-0.217394	0.0137067	0.0517241	0	0	-0.291138	-0.0574656	0.0651435	0.248419	-0.593263	0.0115939	1.50483	0.919034	0	0	0.305931	-0.442021	0.0527756	1.69488	1.09924	0	0
0.15	0.256149	1.34039	-1.87411	0.759651	1.32501	0.916524	-0.457507	-0.0392701	-0.314347	0.222928	0.305355	0	0	0.206457	0.0589183	-0.225462	0.0695739	0.0607009	0	0	-0.288459	-0.0615536	0.0749498	0.24745	-0.593378	0.0120317	1.50364	0.917994	0	0	0.307318	-0.445126	0.0564858	1.69613	1.09966	0	0
0.16	0.253771	1.33862	-1.88311	0.758766	1.31171	0.914239	-0.465571	-0.0475549	-0.309719	0.240964	0.314296	0	0	0.211878	0.0566584	-0.234177	0.124281	0.0765821	0	0	-0.285486	-0.0654283	0.0862555	0.245572	-0.593679	0.0112467	1.50393	0.917993	0	0	0.308051	-0.447839	0.0602944	1.6978	1.1001	0	0
